<?xml version="1.0" encoding="utf-8"?>
<!-- Generator: Adobe Illustrator 19.1.0, SVG Export Plug-In . SVG Version: 6.00 Build 0)  -->
<svg version="1.1" id="Layer_1" xmlns="http://www.w3.org/2000/svg" xmlns:xlink="http://www.w3.org/1999/xlink" x="0px" y="0px"
	 viewBox="0 0 960 354" style="enable-background:new 0 0 960 354;" xml:space="preserve">
<style type="text/css">
	.st0{opacity:0.7;fill:#D6D0D4;}
</style>
<path class="st0" d="M953.8,217.6c-36.3-24.9-97.3,3.5-135.2,14.5c-28.4,8.2-61.6,17-89.2,2.3c13.3-7.2,27.8-12,41.5-18.5
	c23.7-11.2,48.6-25.1,71.5-38c17-9.5,56.2-30.2,67.3-44.4c8.3-10.5,0.3-16.4-10.9-14.7c-19.1,2.9-43.8,26.8-60.9,36.5
	c-10.7,6.1-22.9,8.2-34.2,13c-2.1,0.9-10,5.6-10.9,5.6c-0.9,0-1.4-0.4-1.7-1.2c-0.3-1.1-0.1-2.2,0.2-3.3
	c2.7-8.4,35.9-18.1,44.7-22.8c10.6-5.8,39.6-28.5,10.8-31.1c-19.9-1.8-42.1,7.6-59.1,17.1l-7.9-2.9c2.7-21.5-24.7-20.5-39-17.4
	c-16.3,3.6-47,16.3-62.6,23.6c-17.7,8.3-28.2,24-47,31.7c-3.5,1.4-14.5,6.8-11.6-1.1c3.5-9.4,35.5-23.5,45.1-29.1
	c14.8-8.7,39.2-26.2,4.4-28.6c-11.5-0.8-26.6,0.1-38.1,1.6c-26.7,3.5-47.3,23.2-69.5,37c-9.6,5.9-36.2,21.2-46.8,20.8
	c-2.5-0.1-5.6-1.4-3-3.8l57.7-40.5c1.4-8.5-12-9.7-17.9-8.9c-6.7,0.9-23.8,11.5-30.1,15.7c-24.1,15.8-43.3,35.5-71.2,45.8
	c-6.2,2.3-20.8,6.9-27,6.8c-1,0-2.3,0.4-1.9-1.1c0.9-3.3,7-13.8,9.1-17.1c5.6-8.9,8.5-10.4,17.3-15.7c11.1-6.6,41-20.8,47.3-30.6
	c6.2-9.6-11.3-5.7-15.3-4.8c-27.9,6.2-51.2,25.6-71.7,44.5c-24.5-12.5-55.4-5.3-79.9,4c-22.4,8.5-47.5,23.1-61.2,42.9l16.8,10.7
	c20.5-25,52.2-46.5,85.4-48.6c2.2-0.1,13-0.8,12.4,1.9c-22.3,27.8-54.7,49.1-87.2,63.5c-34.1,15.1-75.9,26.1-112.2,12.6
	c-1.1-1.5,7.6-5.5,8.9-6.4c13-9.1,22.4-21.9,34.6-31.4c10.6-8.1,23.2-13.9,34.4-21.1c26.9-17.2,46.9-42.7,71.7-62.5
	c32.3-25.9,71-38.7,108.1-56.1c18.7-8.8,70.1-31.4,73.5-53.2c1.5-9.3-1.4-13.4-10.8-14.3c-21.5-2.2-67.9,19.2-85.7,31.8
	c-23.5,16.7-50.8,47.9-77.6,57.3c-20.3,7.1-76.8,9.2-95.9-0.1c-8.8-4.3-7.6-7.4-4.1-15.2c14.3-32.2,54.8-56.8,89.1-39.8l0.8,0.8
	c0.2,0.7-0.1,1.2-0.3,1.8c-0.4,0.8-9.2,9.4-10.5,10.5c-6,4.9-13.8,8.4-21.7,8.3c-3.2,0-14-3.3-15.3-2.7l-12.7,14.2
	c13.7,15.5,38.7,5.4,53.7-3.1c9.4-5.3,32.4-22.4,33.3-33.5c0.7-9.6-10.7-17.9-18.6-21.2C295.3-7.9,239,37.8,216.3,69.9
	c-7.4,10.4-13.7,21.9-0.2,30.8c25.4,16.7,61.2,15.5,90.1,17.9c1.1,0.1,2.2-0.6,1.9,1.1c-41.1,33.6-79.1,71-122.7,101.5
	c-8,5.6-30,21.7-38.8,21.2c-4-0.2-12-3.4-16.8-4.3c-25.7-5.1-56-3-80.8,5.7c-26.7,9.5-58.6,31.5-45.4,64.1c2.4,6,5.9,13.3,13.1,13.2
	c15.4-0.3,49.2-7.3,63.5-13c27.5-10.9,54.1-41.7,84.1-41.9c27.5-0.1,55.6,5.5,82.9-0.3c30.1-6.4,89.6-32.3,114.6-50.3
	c6.2-4.4,14.4-15.6,21.6-16.7c5.8-0.8,15.5,3.3,21.6,4.3c23.6,3.5,34.7-12.5,53.1-14.2c19-1.7,41.1,5,59.8,8.2l123.1-68.8
	c1.2,0.7-0.2,1.7-0.7,2.3c-15.1,17.1-41.8,19.1-56.2,42.8c-5.4,8.8-7,13.8,4.1,18.3c16,6.5,30.8-5.1,45.3-9.4
	c12-3.6,11.3,2.4,20.2,5.3c12.9,4.2,20.5-3.3,31.5-3.6c11.5-0.4,23,3.2,35.1,2c7.5-0.8,14.4-4.2,21.5-6.7c0,9.6,5.4,16,15,17.2
	c0.9,1-4.1,5.1-5,5.9c-21.2,16.6-51.8,26-78.6,23.4c-23.8-2.3-46.8-7.3-71.2-9c-79-5.4-212.9-4.7-269.5,59.6
	c-14,15.9-20.3,29.6,2.3,41.3c40.4,21,100.2,10.3,143.4,1.6c51-10.3,95.6-29.9,144.2-47c38.4-13.5,67.3-25.5,109.4-16.4
	c2.5,0.5,6.6,1.3,7.2,4c0,2.3-9.3,7.9-11.6,9.4c-15.7,10.1-56.3,32.6-73.6,35.1c-10.8,1.6-21.9,0-32.7,1.8
	c-14.9,2.4-47.1,16.4-56.4,28.4c-7.3,9.4-2,15.4,8,18.1c32.5,9,71.9-28.1,106.6-30.2c15-0.9,31.4-1.2,46.5-1.5
	c11.9-0.2,23.8,0.2,35.6,0c0.2,1.5-0.1,2-1.1,3c-3.9,4.1-21.7,7.6-22.8,14.8c-0.7,4.7,9.7,7,13,7c14.1,0,50.8-14.9,58.8-26.7
	c3.3-4.7,1.5-6.6-2.7-9.2c-22-14-60.8-4-86.1-6.9c-5.2-0.6-10.8-1.3-5.3-6.8c9-8.9,41.8-24.4,54.4-27.3c21.1-4.9,42.8,0.3,64.1,1.1
	c35.9,1.4,105.8-5.9,124.7-41.8C961.9,222.1,958.9,221.1,953.8,217.6 M412.4,59.8c1.8-8.7,19.7-18.3,27.3-22.2
	C450,32.3,466.5,24,477,20.1c0.9-0.3,1.7-0.8,2.8-0.6c0.3,0.3-1,3.5-1.4,4.2c-6.8,14-39.4,26.4-53.4,33.6c-2.9,1.5-7.1,4.8-9.9,5.8
	C412.1,64.2,411.9,62.4,412.4,59.8 M122.2,262.1c-2.9,3.2-9.6,8-13.3,10.7c-0.7,0.5-1.5,1.1-2.3,1.7c-0.5,0.4-1.1,0.8-1.6,1.2
	c0,0,0,0,0,0c-0.6,0.4-1.1,0.8-1.7,1.2h0c-0.6,0.4-1.2,0.8-1.8,1.2c-0.6,0.4-1.3,0.9-1.9,1.3c-1,0.6-2,1.3-3,2
	c-0.3,0.2-0.7,0.4-1.1,0.7c-0.7,0.5-1.4,0.9-2.1,1.3c-0.4,0.2-0.7,0.4-1.1,0.7c-2.6,1.6-5.3,3.2-8,4.7c-0.8,0.4-1.6,0.9-2.4,1.3
	c-2.8,1.5-5.7,3-8.5,4.5c-0.4,0.2-0.8,0.4-1.2,0.6c-0.8,0.4-1.6,0.8-2.5,1.2c0,0,0,0,0,0c-1.2,0.6-2.5,1.1-3.7,1.7c0,0,0,0,0,0
	c-1.2,0.5-2.4,1-3.6,1.5c-0.4,0.2-0.8,0.3-1.2,0.5c-0.8,0.3-1.6,0.6-2.4,0.9c-1.2,0.4-2.4,0.9-3.5,1.2c-6.4,2.1-12.4,3.3-17.2,3
	c-0.9,0-1.7-0.1-2.5-0.3c-0.4-0.1-0.8-0.1-1.2-0.3c-0.5-0.1-0.9-0.2-1.4-0.4c-0.4-0.1-0.8-0.3-1.2-0.5c-2.4-1.1-4.3-2.7-5.7-4.7
	c-0.4-0.6-0.8-1.2-1.1-1.8c-0.2-0.4-0.4-0.9-0.6-1.3c-0.2-0.4-0.3-0.9-0.5-1.3c-0.9-2.9-0.9-6.1-0.2-9.3c0.7-3.1,2.1-6.2,4.2-9
	c0.8-1,1.6-1.9,2.5-2.8c5.2-5.1,12.7-9.3,21-12.5c0.7-0.3,1.4-0.6,2.2-0.8h0c0.7-0.3,1.5-0.5,2.2-0.8c12.2-4.1,25.4-6.2,35-6.6
	l6.5-0.2c7.5,1.2,15.1,0.9,22.3,3.9c1.3,0.6,2.6,1,3.4,1.6c0.1,0.1,0.2,0.1,0.2,0.2C123.8,259.2,123.8,260.3,122.2,262.1
	 M680.6,169.9c-2.9,1-6.1-3.9-5.9-6.7c0.6-9.1,26.6-19.6,34.3-22.7c11.2-4.5,22.9-8.5,34.7-11.4L680.6,169.9z M643.7,247.6
	c-4.8,2.9-13.2,6.2-18.5,8.5c-31.2,13.2-66.6,25.3-99.1,35.1c-40.7,12.3-105.5,31.7-146.8,20.4c-5.7-1.6-28.4-11.2-29.9-16.7
	c-1.4-5.2,9.2-17.7,13-21.2c33.5-30.1,121.6-41.7,165.7-41.6c11.2,0,22.5,0.9,33.7,1.1l82.9,7.8C646.2,244.4,647,245.6,643.7,247.6
	 M931.8,231c-30.4,21.2-70,21.5-105.7,18c-0.3-1.5,0.8-1.7,1.7-2.4c7.5-5.1,26.3-9.9,35.6-12.4c13.9-3.7,53.6-12.9,65.6-6.8
	C930,227.9,932.5,229.9,931.8,231"/>
</svg>
