<?xml version="1.0" encoding="utf-8"?>
<!-- Generator: Adobe Illustrator 19.1.0, SVG Export Plug-In . SVG Version: 6.00 Build 0)  -->
<svg version="1.1" id="Layer_1" xmlns="http://www.w3.org/2000/svg" xmlns:xlink="http://www.w3.org/1999/xlink" x="0px" y="0px"
	 viewBox="0 0 28 28" style="enable-background:new 0 0 28 28;" xml:space="preserve">
<style type="text/css">
	.st0{fill:#FFFFFF;stroke:#FFFFFF;stroke-miterlimit:10;}
</style>
<path class="st0" d="M18.6,21h-5.2L9,25.5c-0.5,0.5-1.1,0.7-1.8,0.7s-1.3-0.2-1.8-0.7l-2.9-2.9c-0.5-0.5-0.7-1.1-0.7-1.8
	c0-0.7,0.2-1.3,0.7-1.8L7,14.6V9.4L18.6,21z M15.8,19.9l-7.6-7.6v2.9l-4.8,4.8C3.1,20.1,3,20.4,3,20.8c0,0.4,0.1,0.7,0.4,0.9
	l2.9,2.9C6.5,24.9,6.8,25,7.2,25c0.4,0,0.7-0.1,0.9-0.4l4.8-4.8H15.8z M7.8,3.1C10.3,2,12.9,1.6,15.6,2s5,1.6,7,3.5s3.1,4.3,3.5,7
	s0,5.3-1.2,7.8l-0.9-0.9c1-2.2,1.3-4.5,0.9-6.9c-0.4-2.4-1.4-4.4-3.2-6.1c-1.7-1.7-3.8-2.8-6.1-3.2s-4.7-0.1-6.9,0.9L7.8,3.1z
	 M12,7.4c1.2-0.2,2.4-0.2,3.6,0.1c1.2,0.3,2.2,0.9,3.1,1.8c0.9,0.9,1.5,1.9,1.8,3.1c0.3,1.2,0.4,2.4,0.1,3.6l-1-1
	c0.1-0.9-0.1-1.8-0.3-2.6c-0.3-0.8-0.7-1.6-1.4-2.2c-0.6-0.6-1.4-1.1-2.2-1.4c-0.8-0.3-1.7-0.4-2.6-0.3L12,7.4z"/>
</svg>
