<?xml version="1.0" encoding="utf-8"?>
<!-- Generator: Adobe Illustrator 19.1.0, SVG Export Plug-In . SVG Version: 6.00 Build 0)  -->
<svg version="1.1" id="Layer_1" xmlns="http://www.w3.org/2000/svg" xmlns:xlink="http://www.w3.org/1999/xlink" x="0px" y="0px"
	 viewBox="0 0 1889.9 488.4" style="enable-background:new 0 0 1889.9 488.4;" xml:space="preserve">
<style type="text/css">
	.st0{opacity:0.2;}
	.st1{fill:#DC800B;}
</style>
<g class="st0">
	<path class="st1" d="M1852,221.1c-1.1-3.2,5.2-11.7,5.2-17.3c0-9.5-8.5-29.5-15.4-36.3c-2-2-19-13.6-20.4-13.6
		c-1.8,0-2.6,0.8-3.2,2.3l-0.2,12.7c-15.2-8.3-10.7,2.2-14.3,8.2c-3.6,6-29.5,3.9-36.8,4c-6,0.1-12.4,2.7-18.9,1.4
		c-8.4-1.6-12.6-17.8-16.3-24.5c-12.4-22.5-26.6-43.3-39.3-65.3c-6.3-10.9-11.8-16.7-3.5-28.7c5.2-7.5,14.4-7.2,17.8-12.2
		c8-8.6,12.1-13.9,11.9-18.4c1.4-5.4-11.7-13-16.1-14.6c-9.4-3.3-39.6-6.5-48.9-4.1c-8.5,2.2-24.4,13.1-31.1,19.1
		c-14.8-3.1-26.3-10.2-41.5-11.7c-4.4-0.4-16-1-20-0.6c-2.4,0.2-20.2,7.5-20.9,8.7c-1.9,1.2-6.2,4.6-8.8,15
		c-2.2,6.3,3.4,7.9,4.7,10.9c1.8,3.8-1,34.2-2.1,40c-0.9,4.9-7.9,16.7-9.1,22.2c-2.6,11.8-3.6,21.7-6.8,34
		c-2.8,10.8-2.7,21.2-7.5,31.3c-14.4,1.7-24.2,2.1-24.3-15.3c0-13.9,7.2-20.5,12.3-31.9c-7.5-0.4-22.9,3.2-29.6,6.8
		c-5.2,1.1-12.9,12.7-15,15.9c-11.5,17.5-12,29.3-6.4,49.4c1.2,4.3,5.9,9.1,4.6,14c-0.4,1.4-14.9,16.9-17.7,21.8
		c-16.7,28.2-8.7,58.1,3,86.6c-3.9,0.1-10.1,1-15.7,2.7c0,0-7.6,2.1-14.1,6.8c-2.7,1.9,6.3,10.7,6.8,18.4
		c1.3,18.2-24.2,15.6-36.2,15.5c-13.2-0.1-27.1-1.5-40.7-2.7c-23.9-2-48.2-4.2-72-5.5c-11.7-0.6-24.5,0-36.1,0.8
		c-2.6-1.9-1-39.6-1.3-46.4c-0.8-21.4-9-51.9,5.3-69.3c4-4.9,8.5-7.2,13.6-10.9c15.6-11.3,22.7-22.3,23.2-27.1
		c0.7-7.5-17.2-4-22.4-4.9c-12.2-1.9-14.1-9.3-15.5-19.8c-3.6-26.8-0.2-68.4,1.2-96.3c0.7-13.6-2.5-22.4,6.1-34.7
		c2.6-3.7,9.5-6.6,11.4-9.7c12-11.7,24.6-23.9,21.8-27.1l0,0c-0.3-1.3-2-3-6-5.4c-16.2-9.8-40.2-11.1-58.2-7.8
		c-13.2,2.4-20.9,18.6-24.8,18.7c-3.8,0.1-11.2-8.3-15.2-10.6c-24.5-14.3-58.6-1.3-77.3,17.4c-2.6,2.6-9.7,10.9-8.7,14.1l-1.6,20.7
		c1.7,1.2,13.8-4.6,18.6-4.7c12.9-0.3,21.5,4.8,23.5,18.3c1.1,7.4-1.2,13.7-1.3,20.2c-0.4,31.3,0,62.9-1.3,93.8
		c-0.2,5.3,0.9,12.9-0.1,17.6c-1.3,6.8-15,5.9-19.7,10.2l-6.2,23.8c-0.3,2.4,0.7,1.7,2,2.2c5,1.9,10.5,1,16.7,3.6
		c12.8,5.5,10.9,14.1,12.8,25.3c5.9,35.3,3,84.4-2.7,119.8c-1.1,6.9,3.6,15.4-7.9,10.4c-5-2.2-6-9.6-13.2-6
		c-3.9-7.8-7.1-1.9-12.4-1.2c-14.3,1.7-20.8-0.2-27.1-13.5c-6.4-13.5-10.9-30.4-16.7-44.4c-5.7-13.7-12.4-27.3-19.3-40.5
		c-0.4-2.2,5.1-3.9,6.6-4.3c4.6-1.5,10.3-2.3,15.2-4.5c-0.1,7.2,0.8,16.1-2.3,22.8c-1.2,2.5-4.9,2.1-4.5,7.8
		c10,4.1,15.8-6.4,22.7-11.3c3.8-2.7,8.1-4,12-7.1c19.1-15.3,28.7-55.9,5-70.9l-0.3-1.7c12.6-16.4,16.7-33.5,5.8-52
		c-2.8-4.8-18.9-20.4-23.9-19.3c-4.4,1-2.4,14.3-8.3,17.5c-2.6,1.4-4.3-9.2-6-10.2c-10.6-4.7-5.3,13.8-10.5,17.2
		c-3.7,2-8,0.7-11.7,1.5c-7.9,1.9-16,4-23.9,6c-4,1-10.9,5.7-13.1,3.2c-1.5-1.7-9.2-18.3-10.1-21.1c-1.1-3.5-5.2-19-5.5-21.8
		c-0.3-3.2,2-6.6,1.2-9.2c-0.6-1.9-4.3-2.9-5.9-5c-5.3-6.8-13.4-38.8-16.3-48.9c-0.7-2.5-3.2-3.6-3.5-7.4
		c-1.2-13.3,12.5-12.2,13.6-15.1c7.3-4.1,14.4-9.1,15.2-16c5.5-30-29-41.9-53.8-40.2c-20.9,1.5-49.6,20.6-56.4,40.8
		c-6.7-3.6-10.1-9.7-17.3-13.2c-24.9-12.3-47.9-11.3-73.4-2c-5.9,2.2-29.5,21.9-31.1,27.4c-0.3,0.9-0.4,1.6-0.3,2.1l0,0
		c0,0.7,1.9,6.2,3.8,12.4c0.7,2.1,3.3,2.7,6.7,2.7c4.8,0,10.9-1.2,14.6-0.8c10.1,1,17.1,11.5,18.3,21.1c2,16.2-13.1,56.3-20.2,72.3
		c-1.4,3.2-8.8,18.9-10.1,20.4c-2.4,2.6-8.7,1.9-11.7,0.2c-1.9-9.3,1.1-14.9,10.7-16.1c3.4-4.9-9.5-8.7-13-9.4
		c-15-2.7-33.2,2.1-43.6,17.6c-1.7,2.6-9.9,15.4-10.7,19c-1.4,6-0.5,16.6-2.7,21.8c-0.9,2.1-7.8,7.5-10.2,11.5
		c-10.7,17.8-12,46.1-3.9,65.1c2.5,5.8,6.9,11.5,10.7,16.6c8.4,0.5,4.2-7.6,4-12.3c-0.4-11.6,8-11.5,15.8-6.1c3-0.1,2.4-4.3,7-5.2
		c3.1-0.6,17.6-0.9,19.5,0.3c3.3,2.8-0.5,5.8-1.1,8.5c-3.9,18.8-12.8,39.5-21.8,57c-8.2,16-18.5,38.8-40.1,24.7
		c-5.1-3.3-6.3-11.2-12.6-6.7l-18.8,8.3l-2,2.1c-1.5,4.7,1.4,17.4,2.6,22.8c2.8,12.3,8.2,26.6,17.5,35.5
		c17.5,16.8,37.8,27.4,62.1,17.2c9-3.8,13.3-11.2,20.4-16.3c7.7,4.3,15.6,11.6,24.6,13c11.3,1.8,49.2,0.8,57.8-6.4
		c2.9-2.4,1.4-6.2,2.6-7.9c0.6-0.8,13.9-7.5,17.4-10.5c4.6-3.9,10.9-9,9.5-15.6c-5.5-0.4-11.5,0.6-16.9-0.1c-1.2-0.1-12.2-3-13-3.4
		c-8.7-3.8-8-24.2-6.3-32c4.1-18.1,11.7-40.1,16.7-58.1c1.4-4.9,5.5-25,9.4-25.9c8.1,3.3,16.9-0.4,24.3-0.3
		c4.3,0.1,9.3,2.7,13.7,2.8c11.5,0.1,24.4-4.4,36.8-2.8c9.7,1.3,7.7,18.6,12.5,25.5c-1,21.6,11.2,42.7,13.8,63.7
		c1.1,9-2.8,19.7-8.1,27l-21.7,4.1l-1.2,1.6c-8.6,5.6-8.6,5.6-18.3,12.6l0.6,7.6c19.8,10.6,47.9,30.5,71.3,27.7
		c11.9-1.4,25.7-8.1,35.5-14.9c5.1,1.5,10,4,15.2,5.2c22.8,5.1,49.1,4,67.6-11.9c6.3-5.4,7.7-11.1,12.2-17.6
		c5.6,7.3,15.5,15.2,23.3,20.1c19.2,12.2,38.5,22.5,61.4,15.6c6-1.8,14.1-10.8,12.7-0.6c7.5,3.9,12.4-4.1,18.8-6
		c18-5.4,63.6-8.1,82.3-6c5.2,0.6,8.8,3.6,13.6,4.1c30.3,3.6,51.3-0.2,80.2-4.2c13.6-1.9,33.3-0.4,45.2,6.6c4.9,2.9,14,14.3,17.3,14
		c6.7,0.6,13.3-5,18.9-11.1c1.6-1.6,2.9-3.7,4.3-5.9c1.4-2.2,2.7-4.4,4.3-6.1c13.1,4.1,28.6,4.1,41.6-0.4c2.4-0.8,5.2-3.7,6.9-3.6
		c2.5,0.2,16.9,9.3,22.3,10.4c10.7,2.2,28.2-0.9,38.4-4.5c3.2-1.1,11-4.2,15.3-7.6c17.8-11.6,25.6-20.7,21-30.1
		c-0.4-0.8-0.9-1.7-1.5-2.6c-12.7-2.6-29.7-3.1-33.4-18.3c2.3-10.7,3.8-21.7,5.4-32.6c2.9-20.1,5.7-37.4,10.6-57.4
		c1.4-6-1.8-12.9,7.7-14l38.1,2.9c8.7-2.3,18.3-3.9,27.3-2.9c8,0.9,5.1,8.3,6.6,13.8c4.9,17.2,10.5,38.1,16.1,54.6
		c5.3,15.6,22,33.4,17.1,50.3c-0.9,3-8.3,7.6-11.3,7.6c-3,0-5.4-2.8-9-2c-3.1,0.7-2.5,4.3-6,4.9c-8.6,1.6-24.6-6.8-14.6,10.4
		c16.1,27.8,39.2,34.1,70.3,30.3c9.8-1.2,14.5-8.9,22.8-12c11.2,6.6,21,9.8,34.1,10.6c15.4,0.9,25.5-0.2,38.9-7.5
		c2.8-1.5,13.2-7.8,15.5-12.9v0c0.1-0.3,0.2-0.6,0.3-0.9c5.1-14.8,6.2-26.5,1.6-26.2c-0.5-0.8-14.7-4.8-17.4-6.4
		c-10.2-6.2-13.1-27.5-18.9-38.2c-4.6-8.5-12.8-17.4-17.3-26.2c-6.7-12.9-10-27.5-15.3-40.5c-1.7-4.2-9.8-16.7-9.8-20.1
		c13.6-0.2,27.2-4.7,40.9-2.8c4.4,12.1-7.6,19.9-13.6,28.6c0.4,5.9,19.7,0.1,23.3-1.1c36.2-12.4,66.7-37.3,38.4-76.9
		C1863.1,226.9,1858.1,224.7,1852,221.1 M1027.9,293.1c-2,0.9-5.6-0.7-6.5-2.5c-1.1-2.4,1.7-2.1,2.7-2.6c8.1-3.7,14.1-4.1,23.1-3.5
		L1027.9,293.1z M1056.7,308.9v-19.7c-1.1-3.7-7.7-1.7-6.8-6.1c4.9-1,12.3-5.5,16.4-0.8c0.1,0.1,0.2,0.2,0.3,0.4
		c0.1,0.1,0.1,0.2,0.2,0.3c0.4,0.7,0.8,1.7,1.3,2.7c0.1,0.2,0.2,0.4,0.3,0.6c0.8,1.9,1.5,3.7,1.5,4.2
		C1069.8,293.3,1062.4,310.3,1056.7,308.9 M1068,439.2c-14,8-45.1,8.3-56.9-3.8c-2.5-2.5-4.9-10.3-9.3-9.3
		c-1.3,0.3-8.9,10.5-11.7,12.7c-21.3,17.1-45.4,8.5-66.6-3.5c-0.5-2.7,1.2-3.3,3.1-4.3c11.1-6.2,25.6-4.8,31.6-18.7
		c2.6-6,3-19.8,1.7-26.3c-1.1-5.5-8.7-16.5-10.2-22.4c-2.2-8.3-4.4-16.3-6.7-24.5c-3.8-13.7-3.8-31.7-8.1-44.9
		c-3.7-11.3-6.3-6-14.7-5.7c-19.8,0.7-39.5,4.6-59.8,2.7c-5.5-0.5-21.4-6.5-25.8-1.4c-0.5,0.6-4.9,11.9-5.5,13.6
		c-8.1,26.9-20.9,65.9-22.3,93.1c-0.5,9.4-3.6,18.8,2.8,27c5.1,6.5,17.8,7.3,25.6,9.1c-2.2,3.3-8.5,7.3-12.2,8.9
		c-16,6.9-47,5.5-60.6-6.1c-3.5-3-4.5-7.9-9.5-8.1c-5.1,0.2-9.1,7.1-13,9.9c-34.8,25.2-85.6,1.4-80.8-42.7c1.6-2.2,2.2-0.5,3.8,0.3
		c4.3,2.2,11.1,9.1,14.8,9c14-1.6,26.2-9.5,36-19.3c19.2-19.2,27.8-55.7,36.5-81.1c2.3-6.9,14.7-25.8,4.8-29.2
		c-8.1-2.8-31.7-4.6-40.1-3.3c-4.8,0.8-7.7,4.8-10.9,8.1l-4.1,12.2c-9.2-8-14.2-26.8-11.2-38.4c0.6-2.4,8.1-16.1,10-18.6
		c2.7-3.5,8.3-6.7,9.8-9.3c2.4-4.1-0.8-15.9,0.6-22.5c2.5-12,19.4-26.6,32.3-22.7c-1.8,6.6-4.1,10.1-1.4,17.1
		c0.3,0.9,4.1,6.9,4.5,7.1c2.1,1.2,7.1-0.9,8.6,1.6c0.6,0.9-2.1,6.4,2.7,8.2c3,0.7,3.7-5.5,7-6.5c4-1.2,8.6,0.8,12.6-1
		c4-1.8,6.2-9.1,9.5-11.5c3.2,9.1,0.3,17.7,0,26.4c-1.3,30.3-3.1,60.8-5.4,91.1c-0.4,5.7-0.8,16.3-0.1,21.8c0.3,2.2,2,3.1,3.7,3.2
		c4.9,0.2,2.6-8,3.2-11.3c11-55.7,1.7-116.2,13.6-172.6l5.4-11.6l-2.7,68.6c0.3,3.9,3.5,3.6,6.8,3.4c3.7-17.6,3.4-35.7,4.1-53.7
		c0.7-17.6,0.8-35.3,2.8-52.9c0.3-2.6,2.7-5,2.7-6.9c-0.1-2.9-3.8-3.2-5.2-5.6c-1.5-2.5-1.5-7.1-3.1-10.5
		c-5.2-11-19.3-20.8-31.1-23.3c-4.3-0.9-17.7,0.8-17.1-3.4c3.9-4.7,10.7-10.8,16.5-13.4c15.4-6.9,37.5-10.8,52.6-1.6
		c1.8,1.1,2.4,5.4,6.4,6.4c3,0.7,3.9-2.1,6.1-2.2c2.8-0.2,10.6,5.3,12.7,7.6c3.9,4.2,5.8,14.3,11.6,12.8c1.1-0.3,7.7-17.4,10.4-21.1
		c9-12.2,27.7-24.1,42.8-25.2c19.3-1.4,40.9,1.8,49.6,21.1c-3.9,3.4-8.5,1.3-14.1,3.5c-11,4.4-15.6,18.4-15.6,29.2
		c0,4.2,4.2,17.8,3.9,18.7c-0.5,1.7-3.4,1.9-3.7,2.4c-3.3,5.4,4.8,3.2,6.6,6.1c1.4,2.2,3.5,13.6,5,17.7c0.9,2.4,3.8,5.3,4.1,6.8
		c0.4,2.2-3,5.2-3.8,8c-4.9,17.1-1.5,35.1-3.9,52.6c1.4,3.5,4.1,4.3,6.6,1.4l2.7-44h4.1c-0.9,3.9,2.2,7,2.7,10.3
		c5.2,39.9-1.5,97.2-2.7,138.5c-0.1,4.2-1.2,21.4,5.6,16.4l1.1-1.6c-1.7-12.3,3.3-23.5,4.3-35.2c2.1-25.4-2.9-55.5-0.1-80.2
		c0.2-1.5,0.1-3,1.4-4l2.8,0.1c1.7,3.4,5.2,16.1,7.1,18c4.8,4.9,13.7-2.6,19-4.2c5-1.5,13.3-3.5,18.5-4.6
		c17.7-3.8,38.6-0.6,43.9-23.4c6.2-5.2,18.7,18.1,19.7,23c0.3,1.5-3.3,19.5-4.3,21.6c-2.9,6.4-10.9,7.7-11.5,14.5
		c-0.4,5,2.6,3,5.5,5.4c17.3,14.4,12.8,35.7,4.1,53.6c-4.6,1.1-1.9-4-3-7.1c-8.6-23.8-20.3-11.7-37.4-8.1c-6.7,1.4-29.2,0.4-29,9.2
		c2.4,3.2,2.3,10.7,3.5,12.9c0.8,1.4,3.9,1.8,5.4,4.1c7.8,12.6,16,35.7,22,50c2.6,6.1,4.5,11.7,6.9,17.6c8.6,21.2,13.1,41,41.2,39.7
		C1093.7,415.2,1073,436.4,1068,439.2 M1425.1,359.2l-2.7,0l-1.4-6.8C1425.1,352,1425.4,355.8,1425.1,359.2 M1321.8,434
		c-11.5-0.5-23.2,0.7-34.7,0c-15.3-0.9-29.5-4.2-46.2-2.7c-13.2,1.2-38.8,12-49.6,8.7c-3.6-1.1-4.6-6.2-8.9-6l-2.7,1.3
		c-0.9,7.2-3.3,5.6-6.5,8.1c-1.4,1.1-1.7,3.6-3.1,4c-1.2,0.3-20.8-3.8-23.7-4.5c-14.2-3.9-23.6-11.2-29.9-24.5
		c11.1-0.4,19.1-1.1,25.5-11.2c13.9-22.2,5.7-39.3,8.5-62.2c0.5-4.5,3.4-7.9,4-12.3c2.2-15.6-2.1-24.6-3.8-38.1
		c-3.3-25.9,8.2-52.6-22.3-66.1c-2.9-1.3-13.4-2.2-7.4-5.5c13.7-7.4,20.6-10,22.7-27.6c2.8-23.3,5.9-46.8,4.1-70.7
		c-0.5-7.4-3.5-14.9-4.1-21.7c-1.1-12,2.6-37.2-2.1-46.8c-0.9-1.9-8.4-8.7-10.5-9.9c-6.7-3.6-9.9-1.5-16.3-2.8
		c-6.4-1.2-11.3-5.8-19.3-2.4c-1.2,0-0.9-2.8-0.7-3.4c0.4-1.2,18.2-13.2,20.8-14.5c2.8-1.4,17.3-7.7,19.5-7.9
		c5.6-0.4,5.2,2.7,8.2,3.6c2.4,0.7,11.1-0.1,14.6,0.5c10.3,1.9,22.4,17.5,28.7,17.6c3.1,0,10.5-16.2,15.6-18.4l2.7,1.4
		c-2.8,7.9-0.3,16.6-1.4,24.4c-4.4,31.5-6.3,63.4-9.5,95.2c-0.2,2.5-0.8,11.1,3.4,10.2c3.6-2.7,5.4-5.9,6-10.3
		c2.1-14.4,0.4-29,1.5-43.4c0.6-9,4.5-22.3,5.3-31.4c1.5-16.2-1-33.5,4.2-49.5l4.1,0.6c5.1,3.7-7.8,27.4-0.6,33.5l4.7-0.7l7.2-33.5
		c4.7-3.8,19.5,1.9,25.2,2.9c2.3,3.6-10.2,10.8-12.9,13.5c-22.2,23.2-16.3,65.3-16.9,95.9c-0.4,19.5-3.2,40.1-1.4,59.7
		c1.3,14.5,5.1,21.4,17.6,28.6c-3.6,4.7-9.7,6.6-13.6,10.8c-3.9,4.2-3.1,8-9.6,9.8c2.5,6.1,0.2,10.6,0.1,16.1
		c-0.6,19.6,1.2,39.1,1.5,58.4c0.3,16.8-2.8,48,0,62.5c1.5,8,10.2,1.4,17,0.7c12.7-1.2,25.5,1,38,1.4c16.1,0.6,31.3-1.5,47,3.3
		C1326.8,382.2,1318.1,425.9,1321.8,434 M1469.6,434.3c-0.3,4-3.2,7.9-3.7,11.3c-0.7,4.9,2.9,8.7-3.4,12.7
		c-7.5-15.9-24.5-27.8-42.1-28.2c-14.7-0.3-33.9,0.4-49,1c-14.4,0.6-29.3,4.4-44.1,2.8l6.9-51.5l5.3-0.2c0.3,7.1-4.9,14.2,3.4,18.6
		c8.6-1.7,1-17.5,8.5-19.7c4.5-1.3,38.4-1,44.6-0.3c3.9,0.4,7,3.5,10.5,2.6c0.9-0.3,14.3-8.9,15.9-10.1
		c11.4-8.5,13.5-19.5,12.3-33.2c25.6,0.7,36.8,28.7,21,48.8c-2.7,3.4-6.6,5.3-8.3,7.3c-6.7,8.1,8.4,9.8,12.5,13.2
		C1466,414.6,1470.1,426.4,1469.6,434.3 M1463.7,395.8c-1.4,1.4-2,3.4-4.6,2.8c2.7-6.4,10.4-14.8,11.9-21.4c2.1-9.3-2-24.4-7.7-31.9
		c-5.1-6.7-16.9-7.4-14.9-19.2c0.3-1.7,4-10.3,5.3-11.1c4-2.2,5.3,7.2,9.4,1.3c3.7-5.4-5.4-9.9,2.1-18.2c8.6-9.5,21.9-6.6,30.5,0.9
		c-1,9.1-5.1,17.4-7.4,26.2C1481.7,350.7,1483.5,375.6,1463.7,395.8 M1862.8,282.5c-1.8,1.8-14.2,10.2-15.7,10.1
		c-3.5-0.3-1-6.8-1.2-8.6c-0.8-7.3-4.7-17.1-11.1-21.3c-7.2-4.8-14-0.4-21.8,0c-10.1,0.6-16.8,0.2-27.3,1.2
		c-7.7,0.7-19.1-2.7-22.3,6.2l18.3,40.2c0,25.1,28.7,52,35.3,70.7c4.7,13.3,4.1,26.5,18.6,35.8c3,1.9,11.2,2.3,9.3,6.8
		c-0.4,0.9-13.9,11.5-15.2,12c-13.4,5.4-37.4,4.7-49.1-4.6c-3.4-2.7-6-10.9-11.7-7.3c-1.6,1-4.7,7-8.2,9.4
		c-12.8,8.6-29.8,0.6-43.4-1.9c-0.6-2.6,0.9-2.6,2.3-3.8c6.6-6,19.7-12.6,17.8-23.7c-2.7-15.7-16.3-36.5-21.9-53
		c-5.6-16.4-12.3-32.4-18-48.6c-1.7-4.9-4.2-23-6.4-25.5c-1-1.2-4.1-1.5-5.8-1.7c-26.1-2.5-50.9,3.9-76.1,2.7
		c-2.6-0.1-8.8-2.9-10.4-0.6c-3.1,12.2-5.5,24.4-7.9,36.7c-4.2,22-6.4,43.9-10,66.1c-0.6,3.7-3.1,7.4-3.6,11.3
		c-2.8,20.8,13.5,30.4,31.8,33.2c4.2,2.1-10.5,8.9-12.2,9.5c-10.2,3.7-34,4.6-43.7,0.2c-5.5-2.5-8.7-8.3-14.7-9.2
		c-4.9,2.4-5.9,5.7-11.7,8.1c-21.7,8.9-46.5,0.9-52.7-22.8c9.8-4.7,19.9-9.9,24.4-20.4c3.7-8.7,0.2-11.1,1.6-17.4
		c0.6-2.6,3.5-5.6,4.6-9.1c2-6.6,1-12.6,2-18.3c2.1-11.1,4.8-23.4,7.1-35.1c1.7-8.7,9.5-27.1,9.1-34.4c-0.3-6.6-9-4-12.7-4.7
		c-2.5-0.5-4.6-2.3-6.9-2.6c-17.3-1.8-34.7-0.5-44.4,15.3c-3.1,5.1-6.2,17.1-7.9,0.2c-1.5-15.5,0.8-35,8.3-48.7
		c2.5-4.6,12.9-10.9,13.5-15.2c0.2-5.3-4.4-9.1-6.1-14.2c-5.8-17.1-1.1-38.7,12.9-50.2c-3,11.2-1.3,30.9,10.9,36
		c10,4.2,22.5,2.9,32.7,0.1c11.9-3.4,9.1-9.3,11.2-18.7c5.4-24.2,11.7-48.3,17.6-72.1c4.8-19.2,11.6-38.3,8.9-58.4l-7.8-9.8
		c2.5-5.3,31.3-0.9,37.2-1.9c6.3,2.2,5.4,25.8,4.9,31.7c-2.5,31.5-11.8,64.4-13.6,95.1c-0.6,10.6,0.4,21.9,0,32.7
		c-0.2,6-6.6,21.2,4.1,19.1c4.4-2.3,2.2-10.5,2.8-14.9c6.9-44.5,8.4-88.7,13.5-133.3c0.7-5.8,1-18.5,8.9-18.3
		c6.7,0.2,6.4,12.5,6.1,17c-0.3,4.5-6.2,20.5,3.1,18.2c6.1-1.5,4.6-21.2,6-26.8c0.5-1.9,5.7-15,6.6-16.5
		c1.7-2.9,23.3-13.4,27.2-13.6c5.1-0.2,31,3.1,36,4.6c2.4,0.7,5.9,1.3,5.4,4.8c-8.1,0.1-17.2,9.5-21.5,15.9
		c-10.1,15.1-6.4,27.9,1.3,43c4.7,9.3,22.3,30.6,22.7,38.6c0.1,2.1-4.3,15.4-5,20.2c-1.5,10.5-0.7,20.8-1.5,31.1
		c-0.5,6.2-4.3,12.2-2.5,18.8c0.8,2.1,2.3,2.8,4.4,2.2c6.2-1.9,8-44.5,8.9-52.3c0.2-2,0.1-3.4,2.1-4.7c7.4,4.5,3.7,11.2,5.1,18
		c0.9,4.6,5.3,9.2,6.1,15.6c1.5,10.8-2.8,24-3.7,35c-1.7,20.2-5.1,49.9-4.2,69.3c0.2,3.6,1.8,11.5,6.2,7.4
		c4.2-4.5,1.2-26.9,2.1-34.6c2.4-19.6,6.1-38.1,6.8-58.5c0.3-7.8-1.6-15.4,0-22.5l13.2,17.4l21.1-0.1c9-2.2,24-4,33-3.1
		c2.5,0.2,4.5,2.8,6.7,2.9c1,0,17.2-6.2,18.3-7c1.7-1.4,4.5-6.5,5-8.7c0.9-4.3-2.1-7.1,1.2-9.5c14.4,7.2,23.3,27.2,21.1,42.8
		c-0.8,5.7-6.4,11.4-6.8,17.5c0.5,1.7,13.3,6.2,16.2,8.4C1869.1,242.4,1873,271.8,1862.8,282.5"/>
	<path class="st1" d="M618.9,266.2c-0.7-5.2-5.6-12.3-6.4-16.7c-2.4-11.9,12.5-27.9,22.8-32.3c5.9-2.5,23.9-4.2,23.2-12.2
		c-0.6-6.7-6.7-1.4-9.3-1c-10.5,1.8-22.5,0.6-32.4-3.7c-15.8-6.8-12-17.9-18.2-30.7l-0.8-33.3c5.4-0.5,11.3-3.4,16.5-3.9
		c13.7-1.4,27.1-2.7,40.7-4.2c9.7-1.1,21.2-1.2,31.1-1.2c5.5,1.9,3,23.5,1.6,28.5c-1.1,4-8.2,11.8-6.1,14.7c0.8,1.1,1.8,1.5,3,1.4
		l14.1-5.8c12.6-6.7,20.6-11.9,26.9-20.1c5.8-7.5,12.3-20.5,14.1-29.4c0.9-4.5-2.7-17.4-4.6-22c-1.7-4.1-9.2-12.8-8.5-15.5
		c6.1-6.9,21.5-19.8,22.9-28.9c0.9-6.3,1.3-22.1-0.3-28.1c-1.4-5.4-11.9-21.5-18-21.4c-4.3-0.6-11.2-1.2-17,3.3
		c-4.9,5.8-4.2,16.1-9.4,21.5c-7.8,8-31.8,4.4-42.9,5.1c-34.1,2.1-69.7,5.8-103.4,0.1c-8.2-1.4-11.2,1.9-17.6,2.7
		c-28,3.4-60-2.4-88.4-0.1c-20.1,1.6-40.8,5.6-61.1,6.8c-15.3,0.9-32.5,1.9-45.5-6.8l4-10c-5.5-8.5-12.7-1.5-15.7,0.1
		c-0.8,0.4-5.5,3.7-7.9,7.4c-1.8,2.8-9,16.4-9.9,20c-4.2,16.9,0.5,34.4,12,47.3c-2.9,6.9-7.9,12.8-9.5,20.4
		c-1.4,6.6-1.2,16,0.3,22.6c0.1,0.6,4.8,9.3,1.6,9.2c-8.8-6.1-19.4-8.7-28.7-13.4c-10.3-5.2-20.7-12.7-31.2-17.7
		C221,99.7,162,89.1,139.5,47c-2-3.8-7.5-21.5-11.6-20.7c-0.6,0.1-3.5,2.8-3.6,3.3l-11.6,18.3c-4.5,12.8,1,26.3,0.4,38.4
		c-3.5,70.1-65,108.2-89.7,164.5c-9.5,21.7-20,50.9-20.2,75C2.8,372.2,24.8,419.4,70.9,435c27.8,9.4,42,8.5,69.7-0.3
		c5.5-1.7,37.8-18.5,39.4-17c-1.6,6.3-7.4,10.1-10.9,15.6c-5.8,9.2-11.4,22.1-17.6,31.3c-5.4,8.1-18.2,13.4-16.3,23.8
		c2,0.3,3.5-0.1,5.4-0.8c11.7-4.2,27.7-16.1,41-21.6c14.3-5.9,45.8-17.2,60.4-17.2c7.1,0,27.9,6,33.4,2.2l9.5-22.3
		c0.7-1.7,1.9-3.1,0.2-6.6c-1.4-3.2-5.8-6-8-9.7c-0.8-1.3-3-2.2-0.6-3.6c2.2-1.2,22.3-0.1,27.6-1c8.1-1.3,19-6.4,26.1-10.6
		c0,10.2-3.6,20.3-2,31.3c8.4,1.8,7.4-8.3,11.6-13.5c3.6-4.5,15.8-10.6,21.3-9.3c8.8,2.1,27.6,33.8,35.7,41.9
		c25.1,25.6,99.8,42.4,134,34.7c15.3-3.4,59.1-31.6,66.4-45.1c24.1-44.4,38.3-99.2,25.3-150.1C620.1,277.7,620.3,275.4,618.9,266.2
		 M271.1,419c-14.2,3-30,3-43.8,7.2c-16.3,4.9-29.7,17.9-45.9,22.7c5-10.8,12.2-20.1,17.5-30.7c5.8-11.7,14.2-30.9,16.3-43.5
		c0.7-4.3-1.5-9.6,2.2-12.7c4.5,3.4,6.3,9,10.1,12.9c12.1,12.7,26.4,21.8,38.6,36.8C267.7,413.7,271.8,415,271.1,419 M326.6,374.7
		c-11.9,6.5-37.2,12-51,12.9c-12.6,0.9-33.2-11-42-20.2c-6.7-7.1-12-21.7-22.9-19.1c-1.3,0.3-4.1,17.8-6.6,22.3
		c-7.9,14.5-25.9,28.8-41,35.1c-29.1,12.2-48,15.5-78.4,4.5c-51-18.4-62.1-61.4-58.4-111.4c1-13.3,8.2-36.4,12.6-49.9
		c0.9-2.6,0.7-5.5,1.6-7.9c5.9-15.2,16.4-27.7,25.9-40.7c2.4,1.6,1.7,2.1,1.7,4.3c-0.2,6.6-3.2,13-3.8,19.4c-1.7,18.9,0,44.1,0,63.9
		c0,9.1-1.5,39.1,1.1,45.2c1.6,3.8,6.8,6.8,8.3,2.2l0.2-70.4c0.9-21.2-0.6-44.4,1.4-65.3c0.6-5.8,3.3-17.2,9.5-18.3
		c2.2,15.6,1.2,31.1,0.3,46.7v0.2c0,4.1,9.2,5.2,9.2-1.7v-54c1.2-7.2,15.2-24.2,19.5-32.1c9.9-18.1,17.7-39.6,18.5-60.3
		c0.4-10.5-2.4-20.4,0.7-30.6L147.8,72l36.3,24.2c-5.8,6.4-4.1,13.8-5.8,21.4c-2.2,9.7-4.8,19.7-7.4,29.3c-0.6,2.3-2.8,4.3-3.2,6.5
		c-1.5,10.7,18,21.2,21.4,0.9c2.5-14.7-5.7-26.8-3.7-43.1c0.4-3.6,4-7.2,2.7-11.6c34,12.6,69.2,23.4,99.7,43.7
		c33.2,12,85.2,51.9,90.5,88.9c3.6,24.8,3,61-6.3,84.6c-2.7,6.8-12.2,11.6-13.4,17.8c-0.6,3.4,3.9,4.6,2.9,8.3
		C359.8,349.6,333.6,370.9,326.6,374.7 M364.2,147.2c0.9-1,12.5-5.8,14.2-6.2c14.3-3.5,77.6-1.3,94.5,0.7c12,1.4,7.6,8.6,9.2,16.7
		c3.9,20.5,17.1,42.5-8.1,55.2c-5.6,2.9-26.7,8.1-29,10.4c-1.3,1.3-2.1,4.7-1.2,6c3.2,4.6,20.4-5.3,18.9,2.2
		c-0.7,3.5-14.3,5-12.2,11.6c15.7,4.2,36.8-5.1,44.2,15c6.6,17.9,8.1,64.3,4.4,83.2c-2.1,10.4-3.4,15.2-14.3,18.4
		c-7.8,2.3-13-1.2-16.8-8.2c-7.8-14.3,5.2-11.8,6.9-18.3c1.2-4.7-4.1-5.7-1.3-9.3c7-9,22.5,1.9,20.3-9.2c-0.3-1.7-8.5-12-9.9-13.2
		c-9.3-7.7-36.7-11-48.3-8.9c-2.8,0.5-25.8,11.9-28.4,13.8c-4.1,3-6,10.3-9.2,11.3c-3.1,0.9-7.1-1.1-10.6-1.3
		c-3.2-0.2-5.4,2.8-7.4-0.5c2.9-3.7,4.2-11.6,5.1-16.7c2.3-14.3,6-31.3,4.4-45.9c-0.6-5-3.4-8.3-4-12.3c-2.4-15.5-1.1-21.7-9.3-36.9
		c-6.7-12.4-20-21.7-20.7-37.1c3.5-1.7,10.5,5.5,12.1,0.5C369.3,161.7,359.5,152.2,364.2,147.2 M509,301.4
		c-0.6-14.3-3.8-43.7-12.3-54.3c-7-8.6-13.8-9.7-24.5-10.9c-3-1.8,0.2-5.5,2.3-5.9c3.8-0.8,22.3,3.6,26.1,6
		c8.7,5.4,7.2,18.9,8.3,27.1c3.1,23.8,7.5,50.3,3.4,74.2c-0.7,4-2.5,10-6.2,12.2C509.5,334,509.7,317.5,509,301.4 M590,434.2
		c-6.1,9.5-23,19.8-33.5,23.6c-41.1,14.6-108.9,7.3-138.6-27.6c-10.3-12-14.7-28.2-23.4-40.2c-11.7-16.2-25.8-22-43.3-9.1
		c-3.1-17.5,10.7-22.9,17.4-33.5c9.6-15.2-0.5-25.1,26.8-22.3c5.7,0.6,11.5,4.9,16.9,2.1c2.1-1,4.4-12,8.2-16.2
		c12.5-13.8,26.9-12.1,43.7-8.6c2.7,0.6,20,4.8,16.7,9.2c-0.5,0.7-11.6,5.4-14.9,8.2c-8.8,7.3-11.9,15-10.3,26.5
		c1,7.5,14.7,19.2,19.9,25l-1.5,35.5l3,0.2c2.7-0.2,4.5-8.5,4.5-10.5c0-5.6-1.1-20.3,0-24.5c1.8-6.7,10.9,0.2,10.6,5.8l-2.4,63.5
		l2,8.9l6,1.2c2.8-1.9,1.1-35.2,1.4-41.4c0.3-6,2.3-13,2.8-19c0.5-7.1-1.6-22.1,1.3-27.2c2.1-3.7,8.2-5.8,11-10.7
		c2.2-3.8,6.3-14.7,6.7-19.1c2.8-25.5-2.1-61.5-5.6-86.9c-2.6-19.3-22.5-25-39.3-23.9c-2.5-2.2,8.8-8.4,10.2-9.5
		c6.9-6.1,17-16,17.7-25.7c0.2-2.4-1.9-4.1-2-6.3c-1.1-17-4.1-25.6-6.8-40.8c-0.9-5,1.3-13.7-3.1-17.9c-3.7-3.5-6.6,0.7-9.9,0.9
		c-23.4,1.8-43.2,1.9-66.5,0.1c-15.8-1.2-31.6-6.1-47.2,0.4c-13,5.4-13.5,18.4-15.3,30.9c-5.5-3.7-13.5-11.7-16.6-17.4
		c-5.1-9.5-6.9-25-1.5-34.6C338.2,98.2,349.7,91,350,88c0.4-4.6-9.4-9.9-12.9-14.3c-7.6-9.6-9.1-23.5-0.9-33.2
		c4.2-5,15.5,4.5,20.9,6.4c15.6,5.6,50.2-2.8,68.2-4.3c16.2-1.4,32.9-1.2,48.9-1.3c19.3-0.2,38.7-0.7,57.8,1.3
		c1.7,14.4-2.2,28.8-2.8,42.8c-0.6,15.2-1.5,38.5,0,53.2c0.3,3.4,0.3,5.2,3.5,7.4c3.3,0,4.4-13.7,4.8-17c2.6-23.1,2.4-45.8,5.4-69.3
		c0.9-7-2.8-21.3,9.9-19.4c15.5,2.3-4.4,36,5.8,43.2c6.8,1.6,7-26.1,7.8-30.3c0.3-1.8,3.5-11.7,4.7-11.9c22.2-0.9,45.7,1.4,67.8,0.1
		c16.5-1,33-6.7,50.3-4.2c3.3,0.5,5.4,3.1,8,2.9c1.5-0.1,24.2-13.9,26.5-15.8c5-4.2,6.5-9.5,11.7-12.8c8.3,10.8,10.3,19.6,8.9,33.4
		c-0.8,8.4-15.8,24.6-23.6,28.1c-2.5,1.1-10,1-10.2,4.4c-0.3,4.5,7.6,5.6,10,7.5c5.1,4,10.7,17.5,11.6,23.8
		c1.8,12.7-7.8,28-15.7,37.4l-3.7-13.9c-2.6-7.7-14.1-23.9-22.2-25.4c-8.5-1.6-12.7,2.5-19.3,3.7c-11,2-23.9,5.5-33.7,7
		c-7.3,1.1-46.5-1.6-48.2,0.1c0.2,4.3-0.2,8.6,0,12.9c0.8,12.8,3.3,47.6,7.1,58.2c2.1,5.9,10.6,15.1,16.1,17.8
		c3.9,1.9,8.8,2.1,13.1,4.6c5.2,3.1-2.4,3.9-4.4,5.7c-3.7,3.2-13.7,18.1-14.3,22.4c-1.2,8.9,0.9,17.1,3.2,25.5
		c5.9,22.3,9,41.8,9.1,65.7C619,365.6,609.5,403.5,590,434.2"/>
	<path class="st1" d="M1880.8,25.2c-1.1,1.1-1.5,4-3.1,5.7c-10.4,11.7-32.1,11-45.3,4.5c-16.3-8-16.6-27.2-42-17.1
		c-23.1,9.2-46.5,29.9-48.7,56c-0.4,5.1-0.6,42.5,0.7,44.3c5.4,7.8,11.2-8.8,13-11.6c23.8-34.9,49.4,1.2,79.1-10.6
		c18.2-7.2,43.4-37.9,49.9-56.1C1886.1,35.5,1889.9,16.2,1880.8,25.2 M1842.6,73.4c-2.3,0.8-9.5,3.1-11.5,2.8
		c-6.3-0.8-18.2-10.4-26.5-11.7c-17.4-2.8-30.3,0.6-42.5,13.3c-0.3-8.9,3.2-22,7.6-29.8c0.7-1.2,3-1.6,3.9-2.9
		c4.8-7.5,3.6-9.7,13.1-15.5c23.4-14.3,21.7-1.1,36.7,9.3c14.1,9.9,34.7,12.4,50.2,4.9C1868.7,56.6,1855.5,68.7,1842.6,73.4"/>
	<path class="st1" d="M882.2,121.2c-1.3-1-2.3-1.5-3.9-1.1c-1.3,0.3-2.2,1.6-2.9,2.7c-8.4,20.1-11.1,41.9-15.6,63.2
		c-0.5,2.5,0.4,5.6-0.2,8c-1.3,5.7-7.8,17-6.5,21.5c2,6.8,12,2.2,16.5,2.4c7.4,0.3,17.8,4.9,23.3,5.1c3.5,0.2,9.6-2.2,13.7-2.5
		c3.7-0.3,8.3,3.5,12.3-1.4l0.4-3.1l-22.9-52C893.8,157.4,884.7,123.4,882.2,121.2 M864.4,211c-0.2,0-3.5-1.6-3.4-2
		c8.2-12.5,4.1-29,12.9-41.5c2.8,0,12,37.9,12.9,43.5H864.4z"/>
	<path class="st1" d="M1014.5,372.2c-0.4-3.2,2.7-36.9-6.7-30.6c-4.3,9.5-1.7,19.5-2.9,29.1c-1,7.8-15.8,39.5,0.8,40.3
		c12.4,0.7,12.4-22.1,11.5-30.6C1016.9,377.7,1014.9,375.5,1014.5,372.2"/>
	<path class="st1" d="M838.6,213.7l-4-1.2c-5.4,1.7-6.6,29.5-7.9,35.6c-1.8,8.1-9,16.2-3,25.4c3.6,5.5,12.2,6,14.9,0
		c1.9-4.3,0.8-27.9,0.7-34.6c-0.1-3.2-2.3-6.9-2.1-9.6C837.3,225.6,841.7,219.1,838.6,213.7"/>
	<path class="st1" d="M1616.4,138c-2.3,14.8-6.6,29.3-9.3,43.7c-1.6,8.2-5.1,16.7-0.9,25c2.9,2.9,28.4,1.6,34.4,1.6
		c7.4,0,6.5,0.2,13.8-1c5.9-1,13.2,1,15.4-6.5l-44.4-99.8C1617.1,99.4,1617.3,131.9,1616.4,138 M1642.3,197l-1.8,3.2h-22.4l4.1-55.7
		c2.7,1.2,3.8,5.6,4.7,8.2C1632.2,167.3,1634,183.4,1642.3,197"/>
	<path class="st1" d="M1543.3,342.1c-0.2-7.5,5.7-20-6.7-21c-0.3,5.5,0.5,11.2-0.3,16.7c-2.5,15.6-28.4,44.4-1.7,53.9
		c15.6-5.8,14.9-18.9,12.8-33.1C1546.5,353.5,1543.4,347.6,1543.3,342.1"/>
	<path class="st1" d="M1559.6,209.7l-4.1,0.6c-2.4,1.8-0.7,7.8-1.4,10.9c-2.7,13.5-7.9,28.3-7.9,42.4c0,4,1.4,10.8,6.1,11.4
		c6.8,0.9,10.6-7.3,11.4-13.1c1.6-11.8,2.5-30.2-0.3-41.6C1562.5,217.2,1559.5,213.5,1559.6,209.7"/>
	<path class="st1" d="M1206.9,212.4c-1.3-1.2-5.6-6.9-6.4-8.6c-2.2-4.5-3.6-22.1-5.9-22.7c-6.1-1.7-4.5,8-5.7,12
		c-1.9,6.3-5.7,12.5-11.4,15.7c-5.3,3-12.7,1.3-10.6,11.5c6.9,1.6,17.3,4.7,17.4,13.2c0,4.9-3,10,0.3,15.4c9.3,1.8,5.8-6.1,7.3-12.2
		c1.2-5.2,5.8-13.4,11.3-14.6c3.1-0.7,5.7,1.8,8.4,0.5C1220.4,218.4,1209,214.4,1206.9,212.4"/>
	<path class="st1" d="M1186.5,311.6c-5.6,7.2-2.2,20.3-3.5,29.1c-1.3,8.8-7.8,22.9-9.3,31.4c-0.5,2.8-0.6,10.4,0.6,12.8
		c1.9,3.8,12.8,3.7,15.3,1c8.7-9.5,3.2-43.4,1.7-56C1190.6,323.7,1194.1,313.6,1186.5,311.6"/>
	<path class="st1" d="M573.2,207.9c-0.4-0.2-6.3-6-6.5-6.4c-2.6-4.9,0-21.7-9.5-19.1c-2.8,0.8-0.3,11.6-0.8,14.2
		c-2.4,14.7-23.8,11.8-25.6,18c-2.5,8.4,8,4.7,13,6.9c4.5,1.9,3.4,5.3,4.8,6.7c1,1,3.7,0.5,5.7,3.1c3.1,4,4.3,23.1,6.1,24.5
		c8.3-1,4.5-10.8,5.7-16.7c1.1-5.4,7.6-14.6,12-17.9c2.3-1.7,8.7-3.5,9.3-5.7C589.7,209.1,576.6,210,573.2,207.9"/>
	<path class="st1" d="M561.7,306.5c0.4-4.1-2.9-6.5-5.6-2.7c-5.6,7.7-3,17-4,25.8c-1.2,9.7-11.9,30.2-6,37.4
		c4.1,5.1,12.1,5.7,16-0.2c7-10.6-1.6-24.7-2.8-35.4C558.1,321.2,560.9,315,561.7,306.5"/>
	<path class="st1" d="M480.4,424.4v-4.1C473.6,419.9,473.6,425,480.4,424.4"/>
	<path class="st1" d="M206.7,237.7c-3.3-6.4-16.5-39.1-19.4-40.9c-1.4-0.9-2.4-1.2-4.1-0.6c-1.2,0.5-2,1.8-2.5,3
		c-5.8,21-5.8,43-7.6,64.7c-0.2,2.5,1.1,5.5,0.8,7.9c-0.6,5.8-4.3,17.5-3.8,22.2c3.1,26,60.6,33.7,65.7-4.5l-2.6-7.4L206.7,237.7z
		 M177.3,286.6c6.5-13.4,0.4-29.3,7.6-42.7c2.8-0.3,16.6,36.2,18.2,41.5C203.6,302.5,177.3,299.4,177.3,286.6"/>
</g>
</svg>
